<svg width="28" height="28" viewBox="0 0 28 28" fill="none" xmlns="http://www.w3.org/2000/svg">
<path d="M22.1665 8.16659H18.6665V6.99992C18.6665 5.76224 18.1748 4.57526 17.2997 3.70009C16.4245 2.82492 15.2375 2.33325 13.9998 2.33325C12.7622 2.33325 11.5752 2.82492 10.7 3.70009C9.82483 4.57526 9.33317 5.76224 9.33317 6.99992V8.16659H5.83317C5.52375 8.16659 5.22701 8.2895 5.00821 8.50829C4.78942 8.72709 4.6665 9.02383 4.6665 9.33325V22.1666C4.6665 23.0948 5.03525 23.9851 5.69163 24.6415C6.34801 25.2978 7.23824 25.6666 8.1665 25.6666H19.8332C20.7614 25.6666 21.6517 25.2978 22.308 24.6415C22.9644 23.9851 23.3332 23.0948 23.3332 22.1666V9.33325C23.3332 9.02383 23.2102 8.72709 22.9915 8.50829C22.7727 8.2895 22.4759 8.16659 22.1665 8.16659ZM11.6665 6.99992C11.6665 6.38108 11.9123 5.78759 12.3499 5.35C12.7875 4.91242 13.381 4.66659 13.9998 4.66659C14.6187 4.66659 15.2122 4.91242 15.6497 5.35C16.0873 5.78759 16.3332 6.38108 16.3332 6.99992V8.16659H11.6665V6.99992ZM20.9998 22.1666C20.9998 22.476 20.8769 22.7728 20.6581 22.9915C20.4393 23.2103 20.1426 23.3333 19.8332 23.3333H8.1665C7.85708 23.3333 7.56034 23.2103 7.34154 22.9915C7.12275 22.7728 6.99984 22.476 6.99984 22.1666V10.4999H9.33317V11.6666C9.33317 11.976 9.45608 12.2728 9.67488 12.4915C9.89367 12.7103 10.1904 12.8333 10.4998 12.8333C10.8093 12.8333 11.106 12.7103 11.3248 12.4915C11.5436 12.2728 11.6665 11.976 11.6665 11.6666V10.4999H16.3332V11.6666C16.3332 11.976 16.4561 12.2728 16.6749 12.4915C16.8937 12.7103 17.1904 12.8333 17.4998 12.8333C17.8092 12.8333 18.106 12.7103 18.3248 12.4915C18.5436 12.2728 18.6665 11.976 18.6665 11.6666V10.4999H20.9998V22.1666Z" fill="#AE1332"/>
</svg>
