<svg aria-hidden="true" style="position: absolute; width: 0; height: 0; overflow: hidden;" version="1.1" xmlns="http://www.w3.org/2000/svg" xmlns:xlink="http://www.w3.org/1999/xlink">
<defs>
<symbol id="icon-arrow" viewBox="0 0 32 32">
<path d="M32 4.741l-4.741-4.741v23.703l-23.703-23.703-3.557 3.557 23.703 23.703h-23.703l4.741 4.741h27.259v-27.259z"></path>
</symbol>
<symbol id="icon-facebook" viewBox="0 0 32 32">
<path d="M19.52 4.64h0.96v3.6h-1.2c-0.48 0-0.96 0-1.2 0.24s-0.24 0.48-0.24 1.040v1.28h2.64v3.040h-2.64v13.2h-4.080v-13.28h-2.16v-3.040h2.16v-1.040c0-1.76 0.24-3.040 0.72-3.6 0.72-1.040 2.16-1.52 4.32-1.52 0.24 0.080 0.48 0.080 0.72 0.080z"></path>
</symbol>
<symbol id="icon-instagram" viewBox="0 0 32 32">
<path d="M28.718 10.757c-0.016-1.134-0.233-2.213-0.617-3.208l0.021 0.063c-0.682-1.722-2.021-3.059-3.7-3.722l-0.044-0.015c-0.921-0.356-1.985-0.573-3.097-0.596l-0.010-0c-1.367-0.061-1.801-0.078-5.271-0.078-3.472 0-3.917 0-5.274 0.078-1.063 0.023-2.113 0.223-3.106 0.597-1.724 0.678-3.064 2.015-3.73 3.693l-0.015 0.044c-0.357 0.918-0.574 1.981-0.596 3.091l-0 0.009c-0.061 1.367-0.080 1.8-0.080 5.265 0 3.466 0 3.909 0.080 5.265 0.023 1.063 0.223 2.11 0.597 3.104 0.682 1.721 2.021 3.058 3.7 3.721l0.044 0.015c0.917 0.37 1.979 0.601 3.091 0.638l0.016 0c1.369 0.061 1.802 0.080 5.274 0.080 3.471 0 3.917 0 5.274-0.080 1.122-0.023 2.187-0.239 3.172-0.616l-0.064 0.022c1.722-0.68 3.061-2.016 3.727-3.693l0.016-0.044c0.374-0.994 0.574-2.041 0.595-3.104 0.062-1.366 0.080-1.799 0.080-5.266-0.003-3.465-0.003-3.905-0.082-5.263zM15.989 22.531c-0.002 0-0.004 0-0.007 0-3.624 0-6.563-2.937-6.565-6.561v-0c0.003-3.624 2.941-6.561 6.566-6.561 0.002 0 0.004 0 0.006 0h-0c3.629 0 6.571 2.937 6.571 6.561-0.004 3.624-2.942 6.56-6.567 6.56-0.002 0-0.003 0-0.005 0h0zM22.823 10.696c-0.845 0-1.53-0.685-1.53-1.53s0.685-1.53 1.53-1.53v0c0.012-0 0.027-0.001 0.042-0.001 0.845 0 1.53 0.685 1.53 1.53s-0.685 1.53-1.53 1.53c-0.015 0-0.029-0-0.044-0.001l0.002 0z"></path>
<path d="M15.992 19.976c2.211 0 4.004-1.793 4.004-4.004s-1.793-4.004-4.004-4.004v0c-2.211 0-4.004 1.793-4.004 4.004s1.793 4.004 4.004 4.004v0z"></path>
</symbol>
<symbol id="icon-logo" viewBox="0 0 32 32">
<path d="M29.082 0.314h-4.010c-0.006-0-0.013-0-0.020-0-1.218 0-2.206 0.98-2.22 2.195v3.929c0.014 1.216 1.002 2.196 2.22 2.196 0.007 0 0.014-0 0.021-0h4.009c0.006 0 0.013 0 0.020 0 1.218 0 2.206-0.98 2.22-2.195v-3.929c-0.014-1.216-1.002-2.196-2.22-2.196-0.007 0-0.014 0-0.021 0h0.001zM6.73 23.040h-4.318c-1.332 0-2.412 0.984-2.412 2.196v3.928c0 1.214 1.080 2.196 2.412 2.196h4.32c1.33 0 2.41-0.982 2.41-2.196v-3.928c0-1.214-1.080-2.196-2.412-2.196zM6.25 11.58h-4.010c-1.238 0-2.24 0.986-2.24 2.2v3.928c0.013 1.216 1.002 2.196 2.22 2.196 0.007 0 0.014-0 0.021-0h4.009c0.006 0 0.013 0 0.020 0 1.218 0 2.206-0.98 2.22-2.195v-3.929c0-1.214-1.004-2.196-2.24-2.196zM17.766 22.98h-4.010c-1.236 0-2.24 0.98-2.24 2.194v3.928c0.014 1.216 1.002 2.196 2.22 2.196 0.007 0 0.014-0 0.021-0h4.009c0.006 0 0.013 0 0.020 0 1.218 0 2.206-0.98 2.22-2.195v-3.929c-0.014-1.216-1.002-2.196-2.22-2.196-0.007 0-0.014 0-0.021 0h0.001zM6.25 0.086h-4.010c-1.238 0-2.24 0.984-2.24 2.196v3.928c0.013 1.216 1.002 2.196 2.22 2.196 0.007 0 0.014-0 0.021-0h4.009c0.006 0 0.013 0 0.020 0 1.218 0 2.206-0.98 2.22-2.195v-3.929c0-1.212-1.004-2.196-2.24-2.196zM18.076 11.698h-4.010c-1.236 0-2.24 0.982-2.24 2.194v3.93c0.014 1.216 1.002 2.196 2.22 2.196 0.007 0 0.014-0 0.021-0h4.009c1.238 0 2.24-0.984 2.24-2.196v-3.93c0-1.212-1.002-2.194-2.24-2.194zM29.334 22.98h-4.010c-1.238 0-2.24 0.98-2.24 2.194v3.928c0.014 1.216 1.002 2.196 2.22 2.196 0.007 0 0.014-0 0.021-0h4.009c0.006 0 0.013 0 0.020 0 1.218 0 2.206-0.98 2.22-2.195v-3.929c0-1.214-1.004-2.196-2.24-2.196zM17.59 0.224h-4.008c-1.238 0-2.24 0.982-2.24 2.196v3.928c0.014 1.216 1.002 2.196 2.22 2.196 0.007 0 0.014-0 0.021-0h4.007c0.006 0 0.013 0 0.020 0 1.218 0 2.206-0.98 2.22-2.195v-3.929c0-1.214-1.002-2.196-2.24-2.196zM29.044 11.926h-4.010c-1.236 0-2.24 0.982-2.24 2.196v3.928c0.014 1.216 1.002 2.196 2.22 2.196 0.007 0 0.014-0 0.021-0h4.009c0.006 0 0.013 0 0.020 0 1.218 0 2.206-0.98 2.22-2.195v-3.929c0-1.214-1.004-2.196-2.24-2.196z"></path>
</symbol>
<symbol id="icon-uil_cart" viewBox="0 0 32 32">
<path d="M25.333 9.334h-4v-1.334c-0.044-2.912-2.415-5.256-5.333-5.256s-5.289 2.344-5.333 5.252l-0 0.004v1.334h-4c-0.736 0-1.333 0.596-1.334 1.332v14.668c0 2.209 1.791 4 4 4v0h13.334c2.209 0 4-1.791 4-4v0-14.667c-0.001-0.736-0.597-1.332-1.332-1.333h-0zM13.333 8c0-1.473 1.194-2.667 2.667-2.667s2.667 1.194 2.667 2.667v0 1.334h-5.333v-1.334zM24 25.334c0 0.736-0.597 1.333-1.333 1.333-0 0-0.001 0-0.001 0h-13.332c-0.736 0-1.333-0.596-1.334-1.332v-13.334h2.666v1.334c0 0.736 0.597 1.333 1.333 1.333s1.333-0.597 1.333-1.333v0-1.334h5.334v1.334c0 0.737 0.597 1.334 1.334 1.334s1.334-0.597 1.334-1.334v0-1.334h2.666v13.334z"></path>
</symbol>
<symbol id="icon-x" viewBox="0 0 32 32">
<path stroke-linejoin="round" stroke-linecap="round" stroke-miterlimit="4" stroke-width="3.4286" d="M24 8l-16 16M8 8l16 16"></path>
</symbol>
<symbol id="icon-youtube" viewBox="0 0 32 32">
<path d="M24.24 6c-1.36-0.080-4.16-0.16-8.4-0.16h-0.56c-4.080 0-6.8 0.080-8.16 0.24-1.84 0.16-3.12 0.64-3.84 1.28-0.64 0.56-1.12 1.6-1.28 2.96-0.080 0.88-0.16 2.72-0.16 5.52v0.4c0 2.64 0.080 4.48 0.24 5.36 0.24 1.28 0.64 2.24 1.44 2.8 0.8 0.64 2.16 1.040 4.080 1.2 1.36 0.080 4.16 0.16 8.4 0.16h0.56c4.080 0 6.8-0.080 8.16-0.24 1.84-0.16 3.12-0.64 3.84-1.28 0.64-0.56 1.12-1.6 1.28-2.96 0.080-0.88 0.16-2.72 0.16-5.52v-0.4c0-2.64-0.080-4.48-0.24-5.36-0.24-1.28-0.64-2.24-1.44-2.8-0.8-0.64-2.16-1.040-4.080-1.2zM21.12 15.84l-8.8 5.28v-10.56l8.8 5.28z"></path>
</symbol>
</defs>
</svg>
