<svg aria-hidden="true" style="position: absolute; width: 0; height: 0; overflow: hidden;" version="1.1" xmlns="http://www.w3.org/2000/svg" xmlns:xlink="http://www.w3.org/1999/xlink">
<defs>
<symbol id="icon-Vector-5" viewBox="0 0 27 32">
<path fill="#fff" style="fill: var(--color1, #fff)" d="M24.222 8.222h-4.667v-1.556c0-1.65-0.655-3.233-1.822-4.4s-2.749-1.822-4.4-1.822c-1.65 0-3.233 0.656-4.4 1.822s-1.822 2.75-1.822 4.4v1.556h-4.667c-0.413 0-0.808 0.164-1.1 0.456s-0.456 0.687-0.456 1.1v17.111c0 1.238 0.492 2.425 1.367 3.3s2.062 1.367 3.3 1.367h15.556c1.238 0 2.425-0.492 3.3-1.367s1.367-2.062 1.367-3.3v-17.111c0-0.413-0.164-0.808-0.456-1.1s-0.687-0.456-1.1-0.456zM10.222 6.667c0-0.825 0.328-1.616 0.911-2.2s1.375-0.911 2.2-0.911c0.825 0 1.616 0.328 2.2 0.911s0.911 1.375 0.911 2.2v1.556h-6.222v-1.556zM22.667 26.889c0 0.413-0.164 0.808-0.456 1.1s-0.687 0.456-1.1 0.456h-15.556c-0.413 0-0.808-0.164-1.1-0.456s-0.456-0.687-0.456-1.1v-15.556h3.111v1.556c0 0.413 0.164 0.808 0.456 1.1s0.687 0.456 1.1 0.456 0.808-0.164 1.1-0.456c0.292-0.292 0.456-0.687 0.456-1.1v-1.556h6.222v1.556c0 0.413 0.164 0.808 0.456 1.1s0.687 0.456 1.1 0.456 0.808-0.164 1.1-0.456c0.292-0.292 0.456-0.687 0.456-1.1v-1.556h3.111v15.556z"></path>
</symbol>
<symbol id="icon-x" viewBox="0 0 32 32">
<path fill="none" stroke="#ae1332" style="stroke: var(--color2, #ae1332)" stroke-linejoin="round" stroke-linecap="round" stroke-miterlimit="4" stroke-width="2.6667" d="M24 8l-16 16"></path>
<path fill="none" stroke="#ae1332" style="stroke: var(--color2, #ae1332)" stroke-linejoin="round" stroke-linecap="round" stroke-miterlimit="4" stroke-width="2.6667" d="M8 8l16 16"></path>
</symbol>
</defs>
</svg>
